<svg width="20" height="20" viewBox="0 0 20 20" fill="none" xmlns="http://www.w3.org/2000/svg"><path d="M18.8322 12.9484C19.3971 11.0442 18.9322 8.88273 18.4383 7.38502C18.4351 7.32707 18.4185 7.27091 18.3899 7.22169C18.222 6.7352 18.0671 6.33558 17.9347 6.04715C18.1784 5.94273 18.3391 5.69001 18.3415 5.40776V2.51311C18.3415 2.12926 18.0525 1.81812 17.6959 1.81812H9.76444C9.58617 1.81777 9.44139 1.97306 9.44107 2.165C9.44107 2.17217 9.44127 2.17934 9.44164 2.18646C9.55139 4.27144 9.40935 5.68576 8.99939 6.68307C8.99124 6.69298 8.98369 6.70345 8.97679 6.71435C8.97558 6.73168 8.97558 6.74914 8.97679 6.76647C8.82031 7.12952 8.60867 7.46186 8.35054 7.74989L8.32149 7.77074C8.32149 7.77074 8.32149 7.77074 8.32149 7.79507C7.94303 8.18361 7.50656 8.50079 7.03025 8.73331C6.20039 9.12967 5.34874 9.47087 4.48006 9.75495L4.31542 9.81402C1.29716 10.8913 0.903329 12.8442 0.909785 13.8241C0.908978 13.838 0.908978 13.8519 0.909785 13.8658V16.347C0.910269 16.4677 0.968899 16.5795 1.06473 16.6423C1.80445 17.1268 2.60292 17.4987 3.43738 17.7474C3.609 17.7993 3.78727 17.6917 3.83553 17.5069C3.84461 17.4721 3.8486 17.436 3.84735 17.3999V17.32H4.32188V17.6675C4.31982 17.8396 4.43519 17.9874 4.59304 18.015C4.87388 18.0636 5.15473 18.1018 5.42912 18.1262C5.51902 18.1343 5.60799 18.1015 5.67445 18.0358C5.74087 17.9695 5.77835 17.8762 5.77775 17.7787V17.3408H6.25228V17.8343C6.25228 18.0262 6.39682 18.1818 6.57509 18.1818C6.84625 18.1818 7.11741 18.1818 7.40794 18.1401C7.57608 18.1255 7.70545 17.9741 7.70492 17.7926V17.3408H8.17945V17.6466C8.17715 17.8385 8.31979 17.9961 8.49806 17.9986C8.51675 17.9988 8.53543 17.9974 8.55391 17.9941C9.14647 17.8964 9.73055 17.7465 10.3003 17.5458L10.352 17.5215C12.6116 16.1315 14.0449 17.2748 14.103 17.3234C14.1593 17.3705 14.2286 17.3961 14.2999 17.3964H14.7002C14.8785 17.3964 15.023 17.2408 15.023 17.0489V16.4616H15.4846V17.042C15.4846 17.2339 15.6292 17.3895 15.8074 17.3895H16.8469C17.0252 17.3895 17.1697 17.2339 17.1697 17.042V16.4616H17.6474V17.042C17.6474 17.2339 17.792 17.3895 17.9703 17.3895H18.7676C18.9459 17.3895 19.0904 17.2339 19.0904 17.042V13.2959C19.0936 13.1282 18.9849 12.982 18.8322 12.9484ZM11.1719 2.52006H17.6797V5.39734H11.1719V2.52006ZM7.11418 9.44915L7.11741 9.47C7.38203 9.70126 7.62624 9.95836 7.84696 10.238C7.78841 10.3428 7.75822 10.4631 7.7598 10.5855C7.75758 10.952 8.03185 11.2511 8.37233 11.2535C8.71285 11.2559 8.99067 10.9606 8.99289 10.5941C8.99499 10.2488 8.75074 9.95945 8.43124 9.9287C8.22706 9.62902 7.99444 9.35298 7.7372 9.10513C8.02567 8.92838 8.29707 8.72119 8.54745 8.48658C8.86054 8.80276 9.15183 9.14305 9.41904 9.50475C9.30674 9.85081 9.4763 10.2293 9.79773 10.3503C10.1192 10.4711 10.4708 10.2886 10.5832 9.9426C10.6955 9.59653 10.5259 9.21802 10.2045 9.09709C10.1378 9.07199 10.0676 9.05943 9.99687 9.05995H9.91939C9.63625 8.67623 9.32772 8.31505 8.99616 7.97924C9.15002 7.7753 9.28616 7.55664 9.4029 7.32594C9.90265 7.60598 10.3857 7.91934 10.8491 8.26419C10.8459 8.63457 11.1223 8.93759 11.4663 8.94102C11.8104 8.94446 12.0919 8.64695 12.0951 8.27657C12.0983 7.90618 11.8219 7.60316 11.4778 7.59973C11.3796 7.59873 11.2825 7.62279 11.1945 7.66997C10.7067 7.31448 10.1989 6.99187 9.67406 6.70392C10.0259 5.69618 10.1776 4.35832 10.1066 2.53396H10.5295V5.41124C10.5295 5.79509 10.8185 6.10623 11.1751 6.10623H17.2246C17.3085 6.2904 17.4505 6.6101 17.6055 7.0271H17.4731C15.5121 7.04234 13.9338 8.76602 13.948 10.8771C13.956 12.0767 14.4867 13.2026 15.3813 13.918C12.7698 14.6581 8.84121 15.5373 5.53564 15.308C6.14575 12.6843 5.4162 11.0685 4.94167 10.3596C5.68062 10.0987 6.40586 9.79474 7.11418 9.44915ZM4.29283 10.5577C4.64146 10.999 5.55178 12.4828 4.88357 15.2107C3.7204 15.1122 2.59069 14.7448 1.57154 14.1334C1.55996 14.054 1.55242 13.974 1.54895 13.8936V13.8693C1.52312 13.1291 1.78137 11.5272 4.29283 10.5577ZM18.2931 16.6945V16.1141C18.2931 15.9222 18.1485 15.7666 17.9703 15.7666H16.8501C16.6718 15.7666 16.5273 15.9222 16.5273 16.1141V16.6945H16.1302V16.1141C16.1302 15.9222 15.9857 15.7666 15.8074 15.7666H14.6937C14.5155 15.7666 14.3709 15.9222 14.3709 16.1141V16.6806C13.9319 16.3852 12.3276 15.5269 10.0517 16.896C9.64686 17.0399 9.23391 17.1559 8.81539 17.2435V17.0037C8.81539 16.8118 8.67085 16.6562 8.49258 16.6562H7.37888C7.20061 16.6562 7.05607 16.8118 7.05607 17.0037V17.4798H6.89144V16.9933C6.89144 16.8014 6.7469 16.6458 6.56863 16.6458H5.44848C5.27021 16.6458 5.12567 16.8014 5.12567 16.9933V17.4068L4.96104 17.3825V16.9933C4.96104 16.8014 4.8165 16.6458 4.63823 16.6458H3.51808C3.3539 16.6446 3.21497 16.7761 3.19527 16.9516C2.62233 16.7485 2.07061 16.4818 1.54895 16.1558V14.9118C2.9564 15.7145 4.77704 16.0168 6.7139 16.0168C11.8595 16.0168 17.7475 13.8971 18.4416 13.6434L18.4448 16.6945H18.2931ZM18.1349 13.0284C17.8605 13.1257 17.1858 13.3759 16.2529 13.6434C14.8086 12.891 14.2044 11.0206 14.9034 9.46587C15.3816 8.40236 16.3757 7.7197 17.4731 7.70124C17.6004 7.69933 17.7276 7.70628 17.854 7.72209L17.8573 7.73252C18.3318 9.2059 18.7579 11.3083 18.1349 13.0284Z" fill="#0266C1"/><path d="M12.415 2.94056C11.8962 2.94056 11.4756 3.39331 11.4756 3.95178C11.4774 4.50947 11.8969 4.96108 12.415 4.96299C12.9338 4.96299 13.3543 4.51025 13.3543 3.95178C13.3543 3.39331 12.9338 2.94056 12.415 2.94056ZM12.415 4.268C12.2527 4.268 12.1212 4.12644 12.1212 3.95178C12.1212 3.77712 12.2527 3.63556 12.415 3.63556C12.5772 3.63556 12.7087 3.77712 12.7087 3.95178C12.7087 4.12644 12.5772 4.268 12.415 4.268Z" fill="#0266C1"/></svg>